<svg width="38" height="17" viewBox="0 0 38 17" fill="none" xmlns="http://www.w3.org/2000/svg">
<g filter="url(#filter0_bii)">
<path d="M18.6464 16.6464L15 13H2C0.895431 13 0 12.1046 0 11V2C0 0.895431 0.89543 0 2 0H36C37.1046 0 38 0.89543 38 2V11C38 12.1046 37.1046 13 36 13H23L19.3536 16.6464C19.1583 16.8417 18.8417 16.8417 18.6464 16.6464Z" fill="white" fill-opacity="0.25"/>
</g>
<path d="M7.53977 9.084C7.04044 9.084 6.58777 8.97667 6.18177 8.762C5.78044 8.54267 5.4631 8.24167 5.22977 7.859C5.0011 7.47167 4.88677 7.03533 4.88677 6.55C4.88677 6.06467 5.0011 5.63067 5.22977 5.248C5.4631 4.86067 5.78044 4.55967 6.18177 4.345C6.58777 4.12567 7.04277 4.016 7.54677 4.016C7.97144 4.016 8.3541 4.09067 8.69477 4.24C9.0401 4.38933 9.32944 4.604 9.56277 4.884L8.83477 5.556C8.50344 5.17333 8.09277 4.982 7.60277 4.982C7.29944 4.982 7.02877 5.04967 6.79077 5.185C6.55277 5.31567 6.3661 5.5 6.23077 5.738C6.1001 5.976 6.03477 6.24667 6.03477 6.55C6.03477 6.85333 6.1001 7.124 6.23077 7.362C6.3661 7.6 6.55277 7.78667 6.79077 7.922C7.02877 8.05267 7.29944 8.118 7.60277 8.118C8.09277 8.118 8.50344 7.92433 8.83477 7.537L9.56277 8.209C9.32944 8.49367 9.0401 8.71067 8.69477 8.86C8.34944 9.00933 7.96444 9.084 7.53977 9.084ZM12.599 9.084C12.0904 9.084 11.6307 8.97433 11.22 8.755C10.814 8.53567 10.4944 8.23467 10.261 7.852C10.0324 7.46467 9.91802 7.03067 9.91802 6.55C9.91802 6.06933 10.0324 5.63767 10.261 5.255C10.4944 4.86767 10.814 4.56433 11.22 4.345C11.6307 4.12567 12.0904 4.016 12.599 4.016C13.1077 4.016 13.565 4.12567 13.971 4.345C14.377 4.56433 14.6967 4.86767 14.93 5.255C15.1634 5.63767 15.28 6.06933 15.28 6.55C15.28 7.03067 15.1634 7.46467 14.93 7.852C14.6967 8.23467 14.377 8.53567 13.971 8.755C13.565 8.97433 13.1077 9.084 12.599 9.084ZM12.599 8.118C12.8884 8.118 13.1497 8.05267 13.383 7.922C13.6164 7.78667 13.7984 7.6 13.929 7.362C14.0644 7.124 14.132 6.85333 14.132 6.55C14.132 6.24667 14.0644 5.976 13.929 5.738C13.7984 5.5 13.6164 5.31567 13.383 5.185C13.1497 5.04967 12.8884 4.982 12.599 4.982C12.3097 4.982 12.0484 5.04967 11.815 5.185C11.5817 5.31567 11.3974 5.5 11.262 5.738C11.1314 5.976 11.066 6.24667 11.066 6.55C11.066 6.85333 11.1314 7.124 11.262 7.362C11.3974 7.6 11.5817 7.78667 11.815 7.922C12.0484 8.05267 12.3097 8.118 12.599 8.118ZM18.2533 4.1C18.6873 4.1 19.0629 4.17233 19.3803 4.317C19.7023 4.46167 19.9496 4.667 20.1223 4.933C20.2949 5.199 20.3813 5.514 20.3813 5.878C20.3813 6.23733 20.2949 6.55233 20.1223 6.823C19.9496 7.089 19.7023 7.29433 19.3803 7.439C19.0629 7.579 18.6873 7.649 18.2533 7.649H17.2663V9H16.1323V4.1H18.2533ZM18.1903 6.725C18.5309 6.725 18.7899 6.65267 18.9673 6.508C19.1446 6.35867 19.2333 6.14867 19.2333 5.878C19.2333 5.60267 19.1446 5.39267 18.9673 5.248C18.7899 5.09867 18.5309 5.024 18.1903 5.024H17.2663V6.725H18.1903ZM21.1909 4.1H22.3249V9H21.1909V4.1ZM27.2817 8.09V9H23.4877V4.1H27.1907V5.01H24.6147V6.074H26.8897V6.956H24.6147V8.09H27.2817ZM28.184 4.1H30.41C30.942 4.1 31.411 4.20267 31.817 4.408C32.2277 4.60867 32.545 4.89333 32.769 5.262C32.9977 5.63067 33.112 6.06 33.112 6.55C33.112 7.04 32.9977 7.46933 32.769 7.838C32.545 8.20667 32.2277 8.49367 31.817 8.699C31.411 8.89967 30.942 9 30.41 9H28.184V4.1ZM30.354 8.069C30.844 8.069 31.2337 7.93367 31.523 7.663C31.817 7.38767 31.964 7.01667 31.964 6.55C31.964 6.08333 31.817 5.71467 31.523 5.444C31.2337 5.16867 30.844 5.031 30.354 5.031H29.318V8.069H30.354Z" fill="white"/>
<defs>
<filter id="filter0_bii" x="-45" y="-62.7333" width="145.733" height="124.526" filterUnits="userSpaceOnUse" color-interpolation-filters="sRGB">
<feFlood flood-opacity="0" result="BackgroundImageFix"/>
<feGaussianBlur in="BackgroundImage" stdDeviation="22.5"/>
<feComposite in2="SourceAlpha" operator="in" result="effect1_backgroundBlur"/>
<feBlend mode="normal" in="SourceGraphic" in2="effect1_backgroundBlur" result="shape"/>
<feColorMatrix in="SourceAlpha" type="matrix" values="0 0 0 0 0 0 0 0 0 0 0 0 0 0 0 0 0 0 127 0" result="hardAlpha"/>
<feMorphology radius="59" operator="dilate" in="SourceAlpha" result="effect2_innerShadow"/>
<feOffset dx="-62.7333" dy="63"/>
<feGaussianBlur stdDeviation="31.3667"/>
<feComposite in2="hardAlpha" operator="arithmetic" k2="-1" k3="1"/>
<feColorMatrix type="matrix" values="0 0 0 0 1 0 0 0 0 1 0 0 0 0 1 0 0 0 0.1 0"/>
<feBlend mode="normal" in2="shape" result="effect2_innerShadow"/>
<feColorMatrix in="SourceAlpha" type="matrix" values="0 0 0 0 0 0 0 0 0 0 0 0 0 0 0 0 0 0 127 0" result="hardAlpha"/>
<feOffset dx="62.7333" dy="-62.7333"/>
<feGaussianBlur stdDeviation="31.3667"/>
<feComposite in2="hardAlpha" operator="arithmetic" k2="-1" k3="1"/>
<feColorMatrix type="matrix" values="0 0 0 0 0.0931396 0 0 0 0 0.102248 0 0 0 0 0.1235 0 0 0 0.1 0"/>
<feBlend mode="normal" in2="effect2_innerShadow" result="effect3_innerShadow"/>
</filter>
</defs>
</svg>
