<svg width="21" height="21" viewBox="0 0 21 21" fill="none" xmlns="http://www.w3.org/2000/svg">
<path d="M4.36384 9.98146C4.36386 9.86403 4.38703 9.74776 4.43203 9.63932C4.47702 9.53089 4.54295 9.43243 4.62603 9.34959C4.70911 9.26676 4.8077 9.20118 4.91615 9.15663C5.02459 9.11207 5.14075 9.08942 5.25796 9.08997L6.74032 9.09482C6.97668 9.09482 7.20336 9.18889 7.37049 9.35634C7.53761 9.52378 7.63151 9.75089 7.63151 9.98769V15.6039C7.79846 15.5543 8.01213 15.5015 8.24726 15.446C8.41015 15.4076 8.55533 15.3152 8.65924 15.1838C8.76315 15.0524 8.81972 14.8896 8.81975 14.722V7.75594C8.81975 7.51912 8.91364 7.292 9.08077 7.12452C9.24789 6.95705 9.47457 6.86294 9.71094 6.86289H11.1978C11.4342 6.86294 11.6608 6.95705 11.828 7.12452C11.9951 7.292 12.089 7.51912 12.089 7.75594V14.2215C12.089 14.2215 12.461 14.0707 12.8231 13.9175C12.9576 13.8605 13.0725 13.765 13.1532 13.643C13.234 13.5211 13.2771 13.378 13.2772 13.2316V5.52367C13.2772 5.28689 13.3711 5.05981 13.5382 4.89237C13.7053 4.72493 13.9319 4.63084 14.1682 4.63079H15.6535C15.8898 4.63102 16.1162 4.72519 16.2831 4.89262C16.4501 5.06004 16.5439 5.28701 16.5439 5.52367V11.8709C17.8316 10.9359 19.1366 9.81124 20.1723 8.45901C20.3225 8.26272 20.4219 8.03223 20.4617 7.78809C20.5014 7.54394 20.4802 7.29374 20.3999 7.05981C19.9205 5.67796 19.1585 4.4116 18.1626 3.34176C17.1667 2.27191 15.9588 1.42215 14.6163 0.846842C13.2737 0.271535 11.8261 -0.0166454 10.3661 0.000742498C8.90598 0.0181304 7.46562 0.340703 6.13712 0.947819C4.80863 1.55493 3.62126 2.43322 2.651 3.52648C1.68074 4.61974 0.948949 5.90389 0.502466 7.29677C0.0559828 8.68964 -0.0953639 10.1606 0.0581095 11.6154C0.211583 13.0702 0.666497 14.477 1.39374 15.7455C1.52044 15.9644 1.70685 16.1424 1.93107 16.2588C2.15528 16.3752 2.40798 16.425 2.65949 16.4025C2.94047 16.3777 3.2903 16.3427 3.70622 16.2938C3.88723 16.2732 4.05435 16.1866 4.17575 16.0505C4.29715 15.9143 4.36434 15.7383 4.36453 15.5557V9.98146" fill="white"/>
<path d="M4.33203 18.9882C5.89765 20.1294 7.74783 20.8143 9.67788 20.9673C11.6079 21.1203 13.5426 20.7354 15.2678 19.8551C16.9931 18.9749 18.4417 17.6336 19.4533 15.9797C20.4649 14.3257 21.0001 12.4237 20.9998 10.4839C20.9998 10.2412 20.9885 10.0023 20.9724 9.76416C17.138 15.494 10.058 18.1727 4.33203 18.9882Z" fill="#F0B90B"/>
</svg>
