<svg width="21" height="21" viewBox="0 0 21 21" fill="none" xmlns="http://www.w3.org/2000/svg">
<g clip-path="url(#clip0)">
<path d="M21.0004 10.4532C21.0096 12.5299 20.4027 14.5626 19.2566 16.2944C18.1105 18.0262 16.4766 19.3792 14.5615 20.1824C12.6464 20.9856 10.5361 21.2028 8.49756 20.8067C6.459 20.4106 4.58368 19.4188 3.10876 17.9569C1.63384 16.4949 0.625555 14.6285 0.211408 12.5935C-0.20274 10.5585 -0.00414728 8.44642 0.782072 6.5243C1.56829 4.60219 2.90682 2.95638 4.62841 1.79499C6.34999 0.633611 8.3773 0.00881455 10.454 -0.00038524C11.8329 -0.00649378 13.1994 0.259052 14.4757 0.781091C15.752 1.30313 16.9129 2.07144 17.8922 3.04214C18.8716 4.01285 19.6501 5.16695 20.1834 6.43854C20.7167 7.71014 20.9943 9.07432 21.0004 10.4532Z" fill="#8DC63F"/>
<path d="M20.2124 10.4576C20.2219 12.3784 19.6615 14.2588 18.6021 15.8611C17.5428 17.4634 16.0321 18.7155 14.2611 19.4591C12.4901 20.2027 10.5383 20.4045 8.65262 20.0388C6.76695 19.673 5.03209 18.7563 3.66745 17.4046C2.30281 16.0528 1.3697 14.3267 0.986125 12.4446C0.602554 10.5625 0.785755 8.60891 1.51256 6.83092C2.23936 5.05294 3.47712 3.53042 5.06928 2.45594C6.66144 1.38146 8.53649 0.80328 10.4573 0.794528C13.032 0.783199 15.5059 1.79469 17.3352 3.60668C19.1644 5.41866 20.1993 7.88284 20.2124 10.4576Z" fill="#F9E988"/>
<path d="M10.679 1.42007C11.2963 1.3105 11.9281 1.3105 12.5454 1.42007C13.1687 1.51889 13.7711 1.72074 14.3281 2.01735C14.882 2.3217 15.3606 2.73485 15.8369 3.12213C16.3132 3.50942 16.7872 3.90583 17.2384 4.33953C17.6991 4.76643 18.101 5.25255 18.4338 5.78518C18.7763 6.31362 19.0571 6.8796 19.2707 7.47203C19.6763 8.66355 19.817 9.94714 19.6146 11.1714H19.5545C19.3514 9.95779 19.0759 8.80127 18.6415 7.70105C18.4375 7.14802 18.1976 6.60893 17.9232 6.08724C17.6371 5.56265 17.3216 5.0546 16.9782 4.5655C16.6292 4.07283 16.2014 3.64097 15.7121 3.28724C15.2191 2.93572 14.6522 2.70822 14.1037 2.49213C13.5551 2.27605 13.011 2.05463 12.4389 1.89029C11.8667 1.72594 11.2854 1.60268 10.6782 1.48322L10.679 1.42007Z" fill="white"/>
<path d="M15.426 7.02939C14.7214 6.82547 13.991 6.53634 13.2514 6.24417C13.2088 6.05852 13.0445 5.82721 12.712 5.54493C12.2288 5.12569 11.3211 5.13634 10.5366 5.322C9.67077 5.11808 8.81555 5.0458 7.99457 5.24591C1.2799 7.09558 5.08729 11.6083 2.62207 16.1446C2.97283 16.8887 6.75359 21.2302 12.2242 20.0653C12.2242 20.0653 10.3533 15.5694 14.5753 13.4116C18 11.6547 20.4744 8.40428 15.426 7.02939Z" fill="#8BC53F"/>
<path d="M16.255 9.98243C16.2555 10.0629 16.2321 10.1418 16.1877 10.209C16.1434 10.2762 16.0801 10.3287 16.0059 10.3599C15.9317 10.3911 15.8499 10.3997 15.7708 10.3844C15.6918 10.3691 15.619 10.3308 15.5618 10.2742C15.5045 10.2176 15.4653 10.1452 15.4492 10.0664C15.433 9.98749 15.4406 9.9056 15.471 9.83104C15.5014 9.75649 15.5532 9.69262 15.6199 9.64751C15.6866 9.60241 15.7652 9.57809 15.8457 9.57764C15.9536 9.57723 16.0573 9.61961 16.134 9.69548C16.2107 9.77135 16.2542 9.87453 16.255 9.98243Z" fill="white"/>
<path d="M10.5366 5.31899C11.0259 5.35399 12.7949 5.92768 13.2514 6.24116C12.871 5.1379 11.5904 4.99105 10.5366 5.31899Z" fill="#009345"/>
<path d="M11.0022 8.10949C11.0024 8.48089 10.8924 8.84399 10.6862 9.15288C10.48 9.46178 10.1868 9.70258 9.84373 9.84485C9.50066 9.98711 9.1231 10.0245 8.75881 9.95215C8.39452 9.87984 8.05985 9.70113 7.79712 9.43861C7.5344 9.1761 7.35542 8.84158 7.28281 8.47734C7.21021 8.11311 7.24724 7.73553 7.38923 7.39234C7.53122 7.04915 7.77179 6.75578 8.08051 6.54932C8.38924 6.34285 8.75225 6.23257 9.12365 6.23242C9.62142 6.23242 10.0988 6.43005 10.4509 6.78189C10.8031 7.13372 11.0011 7.61096 11.0015 8.10873L11.0022 8.10949Z" fill="white"/>
<path d="M10.4455 8.12604C10.4455 8.38729 10.368 8.64266 10.2228 8.85988C10.0777 9.07709 9.87142 9.24639 9.63006 9.34636C9.3887 9.44634 9.12312 9.4725 8.86689 9.42153C8.61067 9.37056 8.37531 9.24476 8.19059 9.06004C8.00586 8.87531 7.88006 8.63995 7.82909 8.38373C7.77813 8.12751 7.80428 7.86193 7.90426 7.62057C8.00423 7.37921 8.17353 7.17292 8.39075 7.02778C8.60796 6.88264 8.86334 6.80518 9.12458 6.80518C9.4749 6.80518 9.81087 6.94434 10.0586 7.19205C10.3063 7.43976 10.4455 7.77573 10.4455 8.12604Z" fill="#58595B"/>
<path d="M17.7766 10.8099C16.2548 11.882 14.5246 12.6954 12.07 12.6954C10.9211 12.6954 10.6883 11.478 9.92896 12.073C9.53711 12.3819 8.15537 13.0727 7.05895 13.0202C5.96254 12.9677 4.18515 12.3256 3.68982 9.98438C3.49351 12.3256 3.39308 14.0489 2.51123 16.0249C4.26123 18.8272 8.43385 20.9888 12.2215 20.0575C11.8174 17.2157 14.3047 14.4324 15.7002 13.0104C16.2328 12.4709 17.2447 11.5906 17.7766 10.8107V10.8099Z" fill="#8BC53F"/>
<path d="M17.7167 10.88C17.2442 11.3107 16.6819 11.6295 16.1097 11.911C15.5305 12.1857 14.9267 12.4056 14.3065 12.5676C13.6856 12.7282 13.0381 12.8492 12.3822 12.7898C11.7264 12.7305 11.056 12.5075 10.6216 12.016L10.6421 11.9924C11.1747 12.3379 11.7895 12.4596 12.4013 12.4771C13.0213 12.4961 13.6416 12.4451 14.2502 12.3249C14.8649 12.1961 15.4664 12.0101 16.0466 11.7695C16.6271 11.5298 17.2016 11.2521 17.6961 10.8564L17.7167 10.88Z" fill="#58595B"/>
</g>
<defs>
<clipPath id="clip0">
<rect width="21" height="21" fill="white"/>
</clipPath>
</defs>
</svg>
