<svg width="21" height="21" viewBox="0 0 21 21" fill="none" xmlns="http://www.w3.org/2000/svg">
<g clip-path="url(#clip0)">
<path d="M18.2611 12.5481C18.0949 12.6609 17.9009 12.7275 17.6995 12.7408C17.4981 12.7541 17.2967 12.7137 17.1167 12.6238C16.6941 12.3886 16.4663 11.837 16.4663 11.0854V8.78177C16.4663 7.67594 16.0217 6.88915 15.278 6.67555C14.021 6.31325 13.0825 7.83005 12.7202 8.40054L10.4973 11.9452V7.61916C10.4726 6.62148 10.1432 6.02395 9.52026 5.8455C9.1086 5.72654 8.49111 5.7752 7.89009 6.67825L2.92002 14.538C2.25873 13.2916 1.91585 11.9051 1.92107 10.4986C1.92107 5.76168 5.7632 1.90885 10.4973 1.90885C15.2313 1.90885 19.0872 5.76168 19.0872 10.4986V10.523C19.0872 10.523 19.0872 10.5392 19.0872 10.5473C19.1338 11.4639 18.8319 12.1939 18.2639 12.5481H18.2611ZM21.0055 10.5014V10.4554C20.9671 4.68289 16.2687 0 10.4973 0C4.72582 0 0 4.70993 0 10.4986C0 16.2874 4.70936 21 10.4973 21C13.1518 20.9999 15.7054 19.9974 17.6326 18.1989C17.8197 18.0253 17.9298 17.786 17.939 17.533C17.9483 17.2799 17.856 17.0335 17.682 16.847C17.5988 16.7564 17.4982 16.6828 17.386 16.6305C17.2738 16.5783 17.1522 16.5484 17.0283 16.5426C16.9043 16.5369 16.7804 16.5553 16.6637 16.5969C16.547 16.6384 16.4398 16.7023 16.3483 16.7849C15.5185 17.5603 14.5383 18.1625 13.4665 18.5554C12.3946 18.9483 11.2532 19.1237 10.1108 19.0712C8.9684 19.0187 7.84855 18.7393 6.81848 18.2497C5.78842 17.7602 4.86939 17.0707 4.11657 16.2225L8.58991 9.13866V12.4075C8.58991 13.9784 9.2074 14.4867 9.72608 14.6354C10.2448 14.7841 11.0379 14.6813 11.8694 13.3511L14.3394 9.41174C14.4162 9.28467 14.4903 9.17652 14.5562 9.08188V11.0854C14.5562 12.5535 15.1545 13.7269 16.2028 14.3055C16.6795 14.5591 17.2167 14.6815 17.758 14.6601C18.2993 14.6387 18.8247 14.4742 19.2793 14.1839C20.4319 13.4457 21.0604 12.1101 20.9945 10.5014H21.0055Z" fill="white"/>
</g>
<defs>
<clipPath id="clip0">
<rect width="21" height="21" fill="white"/>
</clipPath>
</defs>
</svg>
