<svg width="21" height="21" viewBox="0 0 21 21" fill="none" xmlns="http://www.w3.org/2000/svg">
<path fill-rule="evenodd" clip-rule="evenodd" d="M17.955 3.09137C17.01 2.13198 15.96 1.38579 14.7 0.852792C13.44 0.319797 11.97 0 10.5 0C8.925 0 7.56 0.319797 6.3 0.852792C5.04 1.38579 3.88499 2.13198 2.94 3.09137C1.995 4.05076 1.26 5.22335 0.734997 6.50254C0.209997 7.78173 0 9.16751 0 10.5533C0 11.9391 0.209997 13.3249 0.734997 14.6041C1.26 15.8832 1.89 16.9492 2.835 17.802L5.775 12.3655L8.71499 15.3503L11.97 7.46193L10.605 6.82234L12.495 5.43655L14.385 4.05076L14.7 6.39594L15.015 8.74112L13.65 8.10152L9.45 18.2284L6.3 15.1371L4.305 18.9746C4.935 19.5076 5.67 19.8274 6.405 20.1472C7.665 20.6802 9.135 21 10.605 21C12.18 21 13.545 20.6802 14.805 20.1472C17.325 19.0812 19.32 17.0558 20.265 14.4975C20.79 13.2183 21 11.8325 21 10.4467C21 9.06091 20.79 7.67513 20.265 6.39594C19.53 5.11675 18.795 4.05076 17.955 3.09137Z" fill="#4BC1BE"/>
</svg>
