<svg width="21" height="21" viewBox="0 0 21 21" fill="none" xmlns="http://www.w3.org/2000/svg">
<circle cx="10.5" cy="10.5" r="10.5" fill="#23262D"/>
<path d="M7.47279 5.00459C6.10283 5.02392 5.00187 6.139 5 7.50909V13.4909C4.99959 14.5056 5.6107 15.4207 6.54821 15.809C7.48572 16.1973 8.56486 15.9825 9.28212 15.2646L10.9847 13.5617C11.0253 14.9312 12.1572 16.0147 13.5272 15.9954C14.8972 15.9761 15.9981 14.861 16 13.4909V7.50909C16.0004 6.49434 15.3893 5.57933 14.4518 5.19099C13.5143 4.80265 12.4351 5.01752 11.7179 5.73534L10.0153 7.43833C9.97474 6.06883 8.84275 4.98526 7.47279 5.00459Z" fill="#FF0015"/>
<path d="M7.51008 15.9987C8.89581 15.9987 10.0192 14.8753 10.0192 13.4896C10.0192 12.1038 8.89581 10.9805 7.51008 10.9805C6.12434 10.9805 5.00098 12.1038 5.00098 13.4896C5.00098 14.8753 6.12434 15.9987 7.51008 15.9987Z" fill="white"/>
</svg>
