<svg width="21" height="21" viewBox="0 0 21 21" fill="none" xmlns="http://www.w3.org/2000/svg">
<circle cx="10.5" cy="10.5" r="10.5" fill="#1FC7D4"/>
<path fill-rule="evenodd" clip-rule="evenodd" d="M6.41732 6.07369C6.22193 5.02728 7.02475 4.06055 8.08912 4.06055C9.02839 4.06055 9.78982 4.82207 9.78982 5.76145V7.85841C10.0248 7.84182 10.2635 7.83332 10.5053 7.83332C10.7375 7.83332 10.967 7.84117 11.193 7.85649V5.76145C11.193 4.82207 11.9544 4.06055 12.8937 4.06055C13.9581 4.06055 14.7609 5.02728 14.5655 6.07369L14.1053 8.53855C15.6848 9.22823 16.8792 10.4261 16.8792 11.9313V12.842C16.8792 14.0798 16.0604 15.1162 14.9157 15.8158C13.7621 16.5209 12.2015 16.94 10.5053 16.94C8.80905 16.94 7.24843 16.5209 6.09482 15.8158C4.95015 15.1162 4.13135 14.0798 4.13135 12.842V11.9313C4.13135 10.4341 5.31345 9.24081 6.87966 8.54975L6.41732 6.07369ZM13.5155 8.86238L14.054 5.97816C14.1896 5.2519 13.6324 4.58093 12.8937 4.58093C12.2418 4.58093 11.7133 5.10947 11.7133 5.76145V8.42998C11.5425 8.40807 11.3689 8.39072 11.193 8.37813C10.9674 8.362 10.7379 8.3537 10.5053 8.3537C10.2631 8.3537 10.0243 8.36269 9.78982 8.38015C9.61385 8.39326 9.44029 8.41114 9.2695 8.43357V5.76145C9.2695 5.10947 8.74103 4.58093 8.08912 4.58093C7.35039 4.58093 6.79319 5.2519 6.9288 5.97816L7.46914 8.87195C5.77996 9.49948 4.65167 10.6349 4.65167 11.9313V12.842C4.65167 14.8179 7.27241 16.4196 10.5053 16.4196C13.7381 16.4196 16.3589 14.8179 16.3589 12.842V11.9313C16.3589 10.6283 15.219 9.4879 13.5155 8.86238Z" fill="#633001"/>
<path d="M16.3625 12.8481C16.3625 14.8228 13.74 16.4235 10.505 16.4235C7.26996 16.4235 4.64746 14.8228 4.64746 12.8481V11.938H16.3625V12.8481Z" fill="#FEDC90"/>
<path fill-rule="evenodd" clip-rule="evenodd" d="M6.92612 5.98379C6.79042 5.25771 7.348 4.58691 8.08722 4.58691C8.73957 4.58691 9.2684 5.11532 9.2684 5.76714V8.43858C9.66704 8.38627 10.0807 8.35873 10.505 8.35873C10.9194 8.35873 11.3238 8.38501 11.7139 8.43499V5.76714C11.7139 5.11532 12.2427 4.58691 12.895 4.58691C13.6343 4.58691 14.1918 5.25771 14.0561 5.98379L13.5172 8.86729C15.2219 9.49264 16.3625 10.6327 16.3625 11.9355C16.3625 13.9108 13.74 15.5122 10.505 15.5122C7.26996 15.5122 4.64746 13.9108 4.64746 11.9355C4.64746 10.6393 5.77651 9.50423 7.46682 8.87685L6.92612 5.98379Z" fill="#D1884F"/>
<path d="M8.8799 11.6747C8.8799 12.2115 8.58751 12.6467 8.22682 12.6467C7.86613 12.6467 7.57373 12.2115 7.57373 11.6747C7.57373 11.1378 7.86613 10.7026 8.22682 10.7026C8.58751 10.7026 8.8799 11.1378 8.8799 11.6747Z" fill="#633001"/>
<path d="M13.3654 11.6747C13.3654 12.2115 13.0753 12.6467 12.7174 12.6467C12.3595 12.6467 12.0693 12.2115 12.0693 11.6747C12.0693 11.1378 12.3595 10.7026 12.7174 10.7026C13.0753 10.7026 13.3654 11.1378 13.3654 11.6747Z" fill="#633001"/>
</svg>
