<svg width="13" height="16" viewBox="0 0 13 16" fill="none" xmlns="http://www.w3.org/2000/svg">
<path d="M5.84127 16C4.48265 16 3.25964 15.4788 2.20816 14.4533C1.62708 13.8844 1.23971 13.1447 0.987902 12.1219C0.832923 11.4914 0.76927 10.8694 0.725033 10.3426C0.669687 9.65885 0.608787 8.99477 0.556243 8.43431L0.55069 8.36149C0.50365 7.86552 0.453858 7.34993 0.39576 6.84837C0.337613 6.36078 0.271207 5.86201 0.204802 5.38285L0.132891 4.84204C0.11903 4.74116 0.102417 4.63749 0.0886053 4.53661C0.0526256 4.29843 0.0166462 4.06305 0.0028343 3.82207C-0.0386996 3.09913 0.379147 2.47426 1.06537 2.22767C1.31717 2.13801 1.58279 2.11839 1.8346 2.16323C1.86778 1.65044 2.1362 1.18249 2.57617 0.902279C3.12402 0.552013 3.80199 0.582838 4.34429 0.980735C4.67911 1.22732 4.88113 1.57759 4.96134 2.05114C5.08865 2.78809 5.21591 3.52225 5.34321 4.2592L5.38195 4.47496L5.80254 2.35657C5.86895 2.02312 5.93535 1.68126 5.999 1.34221C6.14563 0.552013 6.78761 0 7.55685 0C8.35096 0.0028021 9.01781 0.602454 9.11189 1.39265C9.11469 1.40946 9.11469 1.42627 9.11744 1.44028C9.36925 1.40105 9.62656 1.42067 9.86731 1.51033C10.6393 1.79335 11.0572 2.59195 10.8856 3.45499L10.7306 4.22838C10.5369 5.18391 10.3433 6.1506 10.1662 7.10896C10.4318 6.76426 10.797 6.54011 11.1983 6.47847C11.6078 6.41683 12.0229 6.52893 12.3715 6.79231C12.8779 7.17619 13.1103 7.85429 12.9498 8.48198C12.792 9.09565 12.5181 9.64767 12.2525 10.1829C12.1833 10.3201 12.1169 10.4574 12.0505 10.5975C11.4666 11.8193 10.8717 12.999 10.0001 14.0133C9.17554 14.9745 8.29561 15.5629 7.31054 15.8123C6.80698 15.9356 6.31442 16 5.84127 16ZM1.56343 3.08512C1.49978 3.08512 1.43612 3.09633 1.37527 3.11874C1.07918 3.22523 0.915941 3.4606 0.935307 3.76323C0.946366 3.96218 0.979594 4.17233 1.01002 4.37409C1.02939 4.49458 1.046 4.60386 1.05981 4.71314L1.13177 5.25393C1.19818 5.73873 1.26458 6.24029 1.32548 6.73347C1.38633 7.24626 1.43613 7.76744 1.48316 8.26901L1.48872 8.34188C1.54131 8.90508 1.60491 9.5748 1.66026 10.2613C1.69899 10.7517 1.75989 11.3261 1.89826 11.8893C2.10578 12.7328 2.41013 13.3268 2.8584 13.7667C4.03993 14.9212 5.45666 15.2939 7.0809 14.8848C7.87226 14.683 8.59446 14.1926 9.29174 13.3829C10.0886 12.4554 10.6504 11.3373 11.2038 10.1772C11.273 10.0343 11.3421 9.89144 11.4141 9.75134C11.6687 9.23854 11.9066 8.7538 12.0422 8.23821C12.1086 7.98601 12.0117 7.70301 11.8098 7.54888C11.6603 7.43678 11.4971 7.38916 11.3366 7.41437C11.1761 7.43957 11.0239 7.53485 10.9049 7.68898L9.70403 9.97829C9.59889 10.18 9.36925 10.2753 9.15342 10.2109C8.93759 10.1436 8.79923 9.93347 8.82135 9.70931C8.89331 8.98913 9.00675 8.22139 9.1894 7.22101C9.38031 6.16183 9.59614 5.09142 9.80641 4.05745L9.9669 3.26445C10.0472 2.86375 9.88393 2.5247 9.5491 2.40141C9.33883 2.32294 9.07596 2.3902 8.90161 2.56393C8.75774 2.70683 8.54191 2.74046 8.36202 2.64799C8.18217 2.55552 8.07978 2.35938 8.11026 2.15762C8.11576 2.1268 8.11851 2.09317 8.12132 2.06235C8.12962 1.9923 8.14068 1.91664 8.15174 1.84659C8.17386 1.71769 8.19323 1.5972 8.18217 1.50753C8.14344 1.19089 7.87781 0.949915 7.5596 0.94711C7.23863 0.94711 6.98407 1.17688 6.92042 1.51594C6.85677 1.8578 6.78761 2.20245 6.7212 2.53871L5.81085 7.12857C5.76656 7.34993 5.57285 7.50965 5.35152 7.50965C5.34872 7.50965 5.34872 7.50965 5.34596 7.50965C5.12183 7.50685 4.92817 7.34149 4.88939 7.11734C4.7898 6.5457 4.69017 5.97126 4.59059 5.39967L4.41899 4.41892C4.29174 3.68197 4.16168 2.94501 4.03718 2.20806C3.98734 1.92224 3.88496 1.81296 3.79088 1.74291C3.56399 1.57478 3.29562 1.55797 3.07423 1.70088C2.84734 1.84659 2.7311 2.11559 2.78094 2.3902C2.81412 2.56953 2.84459 2.75167 2.87226 2.93381C2.90819 3.14396 2.80031 3.35692 2.60659 3.44659C2.41293 3.53626 2.1888 3.48862 2.05043 3.3261C1.92038 3.16918 1.74328 3.08512 1.56343 3.08512Z" fill="white"/>
</svg>
