<svg id="icon-distribution" xmlns="http://www.w3.org/2000/svg" width="65" height="65" viewBox="0 0 65 65">
  <path id="Path_281" data-name="Path 281" d="M15.806,3.174A12.632,12.632,0,1,1,3.174,15.806,12.646,12.646,0,0,1,15.806,3.174m0-3.174A15.806,15.806,0,1,0,31.611,15.806,15.806,15.806,0,0,0,15.806,0Z" fill="#fff"/>
  <path id="Path_282" data-name="Path 282" d="M278.806,266.174a12.632,12.632,0,1,1-12.632,12.632,12.646,12.646,0,0,1,12.632-12.632m0-3.174a15.806,15.806,0,1,0,15.806,15.806A15.806,15.806,0,0,0,278.806,263Z" transform="translate(-229.611 -229.611)" fill="#fff"/>
  <path id="Path_283" data-name="Path 283" d="M304.329,66.558a1.9,1.9,0,0,0-2.693,0l-5.078,5.078a1.9,1.9,0,0,0,0,2.693l5.078,5.078a1.9,1.9,0,0,0,2.693-2.693L302.5,74.887h5.559a3.174,3.174,0,0,1,3.174,3.174v6.348a1.9,1.9,0,0,0,3.809,0V78.061a6.982,6.982,0,0,0-6.982-6.982H302.5l1.827-1.827a1.9,1.9,0,0,0,0-2.693Z" transform="translate(-258.422 -57.622)" fill="#fff"/>
  <path id="Path_284" data-name="Path 284" d="M67.905,286a1.9,1.9,0,0,0-1.9,1.9v6.348a6.982,6.982,0,0,0,6.982,6.982h5.559l-1.827,1.827a1.9,1.9,0,0,0,2.693,2.693l5.078-5.078a1.9,1.9,0,0,0,0-2.693l-5.078-5.078a1.9,1.9,0,0,0-2.693,2.693l1.827,1.827H72.983a3.174,3.174,0,0,1-3.174-3.174v-6.348A1.9,1.9,0,0,0,67.905,286Z" transform="translate(-57.622 -249.692)" fill="#fff"/>
</svg>
