<svg xmlns="http://www.w3.org/2000/svg" width="64.169" height="61" viewBox="0 0 64.169 61">
  <g id="icon-token" transform="translate(-505.934 -130.025)">
    <g id="Group_9" data-name="Group 9" transform="translate(524.102 153.234)">
      <g id="Group_6" data-name="Group 6" transform="translate(12.597 0)">
        <g id="Group_5" data-name="Group 5">
          <path id="Path_278" data-name="Path 278" d="M576.51,172.814c-6.717,0-13.857,2.207-13.857,6.3v5.038a1.26,1.26,0,1,0,2.519,0v-1.313c2.674,1.686,7.087,2.573,11.337,2.573s8.664-.887,11.338-2.573v1.313c0,1.232-3.1,3.2-8.924,3.683a1.26,1.26,0,0,0,.1,2.515c.037,0,.071,0,.108,0a20.192,20.192,0,0,0,8.713-2.5v1.348c0,1.076-2.283,2.623-6.518,3.371a1.259,1.259,0,0,0,.217,2.5,1.089,1.089,0,0,0,.221-.02,16.837,16.837,0,0,0,6.08-2.127v1.315c0,1.076-2.283,2.623-6.518,3.371a1.259,1.259,0,0,0,.217,2.5,1.089,1.089,0,0,0,.221-.02,16.878,16.878,0,0,0,6.08-2.127v1.315c0,1.076-2.283,2.623-6.518,3.371a1.259,1.259,0,0,0,.217,2.5,1.13,1.13,0,0,0,.221-.02,16.888,16.888,0,0,0,6.08-2.127v1.315c0,1.232-3.1,3.2-8.924,3.683a1.259,1.259,0,0,0,.1,2.514c.037,0,.071,0,.108,0,5.591-.469,11.232-2.562,11.232-6.193V179.113C590.367,175.021,583.227,172.814,576.51,172.814Zm0,10.078c-6.921,0-11.337-2.24-11.337-3.779s4.417-3.779,11.337-3.779,11.338,2.24,11.338,3.779S583.431,182.892,576.51,182.892Z" transform="translate(-562.653 -172.814)" fill="#fff"/>
        </g>
      </g>
      <g id="Group_8" data-name="Group 8" transform="translate(0 15.117)">
        <g id="Group_7" data-name="Group 7">
          <path id="Path_279" data-name="Path 279" d="M553.286,200.684c-6.717,0-13.857,2.207-13.857,6.3V217.06c0,4.091,7.14,6.3,13.857,6.3s13.857-2.207,13.857-6.3V206.982C567.142,202.891,560,200.684,553.286,200.684Zm11.337,16.376c0,1.539-4.417,3.779-11.337,3.779s-11.337-2.24-11.337-3.779v-1.313c2.673,1.685,7.087,2.572,11.337,2.572s8.664-.887,11.337-2.572Zm0-5.039c0,1.539-4.417,3.779-11.337,3.779s-11.337-2.24-11.337-3.779v-1.313c2.673,1.685,7.087,2.572,11.337,2.572s8.664-.887,11.337-2.572Zm-11.337-1.259c-6.921,0-11.337-2.24-11.337-3.779s4.416-3.779,11.337-3.779,11.337,2.24,11.337,3.779S560.206,210.762,553.286,210.762Z" transform="translate(-539.429 -200.684)" fill="#fff"/>
        </g>
      </g>
    </g>
    <path id="Path_280" data-name="Path 280" d="M519.444,180.777a1.894,1.894,0,0,1-1.424-.642l-12.086-13.7.023-2.537,30.423-33.258,1.4-.617H568.2l1.9,1.9V155.4a1.9,1.9,0,0,1-3.8,0V133.822H538.617L509.909,165.2l10.958,12.418a1.9,1.9,0,0,1-1.423,3.155Z" fill="#fff"/>
    <circle id="Ellipse_2" data-name="Ellipse 2" cx="1.953" cy="1.953" r="1.953" transform="translate(555.72 140.142)" fill="#fff"/>
  </g>
</svg>
