<svg xmlns="http://www.w3.org/2000/svg" width="60" height="64.869" viewBox="0 0 60 64.869">
  <g id="icon-rug-proof" transform="translate(-1.065)">
    <g id="c54_coins" transform="translate(1.065 0)">
      <path id="Path_275" data-name="Path 275" d="M31.066,22.607c-14.442,0-26.492-5.26-29.347-12.259a8.284,8.284,0,0,0-.654,3.191c0,8.537,13.429,15.461,30,15.461s30-6.921,30-15.461a8.533,8.533,0,0,0-.651-3.191C57.549,17.347,45.5,22.607,31.066,22.607Z" transform="translate(-1.065 13.305)" fill="#fff"/>
      <path id="Path_276" data-name="Path 276" d="M31.066,27.463c-14.442,0-26.492-5.262-29.347-12.256a8.289,8.289,0,0,0-.654,3.2c0,8.533,13.429,15.457,30,15.457s30-6.921,30-15.457a8.547,8.547,0,0,0-.651-3.2C57.549,22.2,45.5,27.463,31.066,27.463Z" transform="translate(-1.065 19.553)" fill="#fff"/>
      <path id="Path_277" data-name="Path 277" d="M31.066,32.478c-14.442,0-26.492-5.255-29.347-12.259a8.3,8.3,0,0,0-.654,3.2c0,8.537,13.429,15.457,30,15.457s30-6.917,30-15.457a8.556,8.556,0,0,0-.651-3.2C57.549,27.223,45.5,32.478,31.066,32.478Z" transform="translate(-1.065 25.998)" fill="#fff"/>
      <ellipse id="Ellipse_1" data-name="Ellipse 1" cx="29.999" cy="15.457" rx="29.999" ry="15.457" transform="translate(0.002)" fill="#fff"/>
    </g>
  </g>
</svg>
