<svg width="14" height="13" viewBox="0 0 14 13" fill="none" xmlns="http://www.w3.org/2000/svg">
<path d="M3.13375 13H0.23125V4.32057H3.13375V13ZM1.68094 3.13661C0.752813 3.13661 0 2.42276 0 1.56091C6.64312e-09 1.14693 0.177098 0.749905 0.492335 0.457179C0.807572 0.164452 1.23513 0 1.68094 0C2.12675 0 2.5543 0.164452 2.86954 0.457179C3.18478 0.749905 3.36188 1.14693 3.36188 1.56091C3.36188 2.42276 2.60875 3.13661 1.68094 3.13661ZM13.9969 13H11.1006V8.77491C11.1006 7.76796 11.0787 6.47664 9.59156 6.47664C8.0825 6.47664 7.85125 7.57064 7.85125 8.70236V13H4.95188V4.32057H7.73562V5.50452H7.77625C8.16375 4.82259 9.11031 4.10293 10.5225 4.10293C13.46 4.10293 14 5.89917 14 8.23226V13H13.9969Z" fill="white"/>
</svg>
