<svg xmlns="http://www.w3.org/2000/svg" width="41.633" height="41.633" viewBox="0 0 41.633 41.633">
  <path id="medium.d48818e9" d="M21.617,41.633A20.817,20.817,0,1,0,.8,20.817,20.817,20.817,0,0,0,21.617,41.633ZM12.591,14.5a.936.936,0,0,1,.289.771V25.708a1.213,1.213,0,0,1-.308,1.035l-2.4,3.012v.391h6.817v-.4l-2.4-3.007a1.254,1.254,0,0,1-.331-1.035V16.682L20.232,30.15h.7l5.146-13.468V27.412c0,.283,0,.342-.18.527l-1.851,1.85v.4h8.98v-.4l-1.785-1.806a.558.558,0,0,1-.2-.527V14.178a.558.558,0,0,1,.2-.527l1.827-1.806v-.4H26.737l-4.512,11.6-5.132-11.6H10.456v.4Z" transform="translate(-0.8)" fill="#fff" fill-rule="evenodd"/>
</svg>
