<svg width="14" height="13" viewBox="0 0 14 13" fill="none" xmlns="http://www.w3.org/2000/svg">
<path d="M1.65847 2.50602C1.67583 2.31719 1.60926 2.12836 1.48191 2.00033L0.176556 0.259243V0H4.23444L7.37192 7.60767L10.1302 0H14V0.259243L12.8828 1.44344C12.7873 1.52345 12.7381 1.65788 12.7583 1.7891V10.4946C12.7381 10.6258 12.7873 10.7602 12.8828 10.8402L13.974 12.0244V12.2837H8.48336V12.0244L9.61505 10.8114C9.72504 10.6898 9.72504 10.6514 9.72504 10.4657V3.43097L6.57887 12.2613H6.1534L2.49494 3.43097V9.34876C2.4631 9.5984 2.53835 9.84805 2.69754 10.0273L4.16787 11.9988V12.258H0V12.002L1.47033 10.0273C1.62663 9.84805 1.69899 9.5952 1.65847 9.34876V2.50602Z" fill="white"/>
</svg>
