<svg width="20" height="20" viewBox="0 0 20 20" fill="none" xmlns="http://www.w3.org/2000/svg">
<circle cx="10" cy="10" r="10" fill="#111216"/>
<path fill-rule="evenodd" clip-rule="evenodd" d="M6.11169 5.78422C5.92561 4.78764 6.6902 3.86694 7.70388 3.86694C8.59842 3.86694 9.32359 4.5922 9.32359 5.48685V7.48395C9.54735 7.46816 9.77471 7.46006 10.005 7.46006C10.2262 7.46006 10.4447 7.46754 10.66 7.48213V5.48685C10.66 4.5922 11.3851 3.86694 12.2797 3.86694C13.2934 3.86694 14.0579 4.78764 13.8719 5.78422L13.4335 8.1317C14.9379 8.78855 16.0754 9.92939 16.0754 11.3629V12.2302C16.0754 13.4091 15.2955 14.3961 14.2054 15.0624C13.1067 15.7339 11.6204 16.1331 10.005 16.1331C8.38952 16.1331 6.90322 15.7339 5.80455 15.0624C4.71438 14.3961 3.93457 13.4091 3.93457 12.2302V11.3629C3.93457 9.93698 5.06038 8.80052 6.55201 8.14237L6.11169 5.78422ZM12.8718 8.44012L13.3847 5.69324C13.5139 5.00156 12.9832 4.36255 12.2797 4.36255C11.6588 4.36255 11.1555 4.86591 11.1555 5.48685V8.0283C10.9928 8.00744 10.8275 7.99091 10.66 7.97893C10.4451 7.96356 10.2266 7.95566 10.005 7.95566C9.7743 7.95566 9.54691 7.96422 9.32359 7.98085C9.156 7.99334 8.99071 8.01036 8.82805 8.03173V5.48685C8.82805 4.86591 8.32474 4.36255 7.70388 4.36255C7.00033 4.36255 6.46966 5.00156 6.59881 5.69324L7.11342 8.44923C5.50468 9.04688 4.43011 10.1282 4.43011 11.3629V12.2302C4.43011 14.112 6.92606 15.6375 10.005 15.6375C13.0839 15.6375 15.5798 14.112 15.5798 12.2302V11.3629C15.5798 10.1219 14.4943 9.03585 12.8718 8.44012Z" fill="#633001"/>
<path d="M15.5835 12.2362C15.5835 14.1168 13.0858 15.6413 10.0049 15.6413C6.92389 15.6413 4.42627 14.1168 4.42627 12.2362V11.3694H15.5835V12.2362Z" fill="#FEDC90"/>
<path fill-rule="evenodd" clip-rule="evenodd" d="M6.59642 5.69877C6.46718 5.00726 6.99821 4.36841 7.70223 4.36841C8.32351 4.36841 8.82716 4.87165 8.82716 5.49243V8.03666C9.20682 7.98684 9.60082 7.96062 10.0049 7.96062C10.3995 7.96062 10.7847 7.98564 11.1562 8.03324V5.49243C11.1562 4.87165 11.6598 4.36841 12.2811 4.36841C12.9851 4.36841 13.5161 5.00726 13.3869 5.69877L12.8737 8.44495C14.4972 9.04053 15.5835 10.1263 15.5835 11.367C15.5835 13.2483 13.0858 14.7734 10.0049 14.7734C6.92389 14.7734 4.42627 13.2483 4.42627 11.367C4.42627 10.1326 5.50156 9.05156 7.11138 8.45406L6.59642 5.69877Z" fill="#D1884F"/>
<path d="M8.45686 11.1186C8.45686 11.6299 8.17839 12.0444 7.83488 12.0444C7.49136 12.0444 7.21289 11.6299 7.21289 11.1186C7.21289 10.6073 7.49136 10.1929 7.83488 10.1929C8.17839 10.1929 8.45686 10.6073 8.45686 11.1186Z" fill="#633001"/>
<path d="M12.729 11.1186C12.729 11.6299 12.4526 12.0444 12.1118 12.0444C11.7709 12.0444 11.4946 11.6299 11.4946 11.1186C11.4946 10.6073 11.7709 10.1929 12.1118 10.1929C12.4526 10.1929 12.729 10.6073 12.729 11.1186Z" fill="#633001"/>
</svg>
