<svg width="21" height="22" viewBox="0 0 21 22" fill="none" xmlns="http://www.w3.org/2000/svg">
<path d="M19.446 6.16701C18.3933 4.12752 16.092 -0.369191 9.04122 0.023964C2.84731 0.367974 -0.580145 5.3807 0.0808651 11.45C0.741875 17.5194 4.14486 19.9766 8.1354 20.8366C12.1259 21.6966 15.4065 19.5343 17.8302 17.5685C20.4987 15.4061 21.8207 10.8111 19.446 6.16701Z" fill="url(#paint0_radial)"/>
<path d="M11.5632 2.0904C11.7835 1.86924 12.2487 1.40237 12.469 0.566892C12.469 0.542319 12.4445 0.517749 12.42 0.493176C11.6611 0.124583 5.61408 -0.710904 1.6725 4.57226C1.5256 4.76884 1.45215 5.03915 1.45215 5.28488C1.47663 5.6289 1.55008 6.16949 1.81938 6.73466C1.81938 6.73466 3.16588 4.40026 6.27508 2.92588C8.89464 1.69724 11.098 1.99211 11.4652 2.11497C11.4897 2.16412 11.5142 2.13954 11.5632 2.0904Z" fill="#A68477"/>
<g style="mix-blend-mode:multiply">
<path opacity="0.7" d="M11.5386 14.3991C11.5386 13.637 12.0037 13.0225 12.6158 13.0225C13.2278 13.0225 13.7175 13.6124 13.7175 14.3745C13.7175 15.1365 13.2523 15.7511 12.6403 15.7511C12.0282 15.7757 11.5386 15.1611 11.5386 14.3991Z" fill="url(#paint1_radial)"/>
<path opacity="0.7" d="M12.2974 14.3991C12.2974 14.2024 12.4443 14.0303 12.6401 14.0303C12.836 14.0303 12.9828 14.2024 12.9828 14.3991C12.9828 14.5958 12.836 14.7679 12.6401 14.7679C12.4687 14.7679 12.2974 14.5958 12.2974 14.3991Z" fill="url(#paint2_radial)"/>
<path d="M12.4443 14.3981C12.4443 14.2751 12.5423 14.1768 12.6402 14.1768C12.7626 14.1768 12.8605 14.2751 12.8605 14.3981C12.8605 14.5211 12.7626 14.6195 12.6647 14.6195C12.5423 14.6195 12.4443 14.5211 12.4443 14.3981Z" fill="white"/>
</g>
<defs>
<radialGradient id="paint0_radial" cx="0" cy="0" r="1" gradientUnits="userSpaceOnUse" gradientTransform="translate(6.31797 6.84999) rotate(59.9778) scale(15.239 15.2111)">
<stop offset="0.0223" stop-color="#460403"/>
<stop offset="0.2519" stop-color="#670A0C"/>
<stop offset="0.7315" stop-color="#B61822"/>
<stop offset="0.7777" stop-color="#B91D24"/>
<stop offset="0.8313" stop-color="#C12B28"/>
<stop offset="0.8886" stop-color="#CE4230"/>
<stop offset="0.9481" stop-color="#E0633B"/>
<stop offset="1" stop-color="#F38546"/>
</radialGradient>
<radialGradient id="paint1_radial" cx="0" cy="0" r="1" gradientUnits="userSpaceOnUse" gradientTransform="translate(12.6421 14.4466) rotate(179.434) scale(1.06649 1.33934)">
<stop stop-color="#680A03"/>
<stop offset="0.1235" stop-color="#89403A"/>
<stop offset="0.2924" stop-color="#B3837F"/>
<stop offset="0.4451" stop-color="#D3B8B6"/>
<stop offset="0.5757" stop-color="#EBDFDE"/>
<stop offset="0.6793" stop-color="#FAF6F6"/>
<stop offset="0.7429" stop-color="white"/>
</radialGradient>
<radialGradient id="paint2_radial" cx="0" cy="0" r="1" gradientUnits="userSpaceOnUse" gradientTransform="translate(12.6468 14.3977) rotate(179.436) scale(0.344228 0.368662)">
<stop offset="0.7237" stop-color="#B61822"/>
<stop offset="0.7561" stop-color="#92131B"/>
<stop offset="0.8298" stop-color="#44090D"/>
<stop offset="0.8823" stop-color="#130204"/>
<stop offset="0.9082"/>
</radialGradient>
</defs>
</svg>
