<svg width="20" height="20" viewBox="0 0 20 20" fill="none" xmlns="http://www.w3.org/2000/svg">
<path d="M4.15607 9.50622C4.15609 9.39438 4.17816 9.28365 4.22101 9.18038C4.26386 9.07711 4.32665 8.98333 4.40578 8.90444C4.4849 8.82555 4.5788 8.7631 4.68208 8.72066C4.78536 8.67823 4.89599 8.65666 5.00762 8.65718L6.4194 8.6618C6.64451 8.6618 6.86039 8.75139 7.01956 8.91086C7.17874 9.07034 7.26816 9.28663 7.26816 9.51216V14.861C7.42717 14.8138 7.63066 14.7634 7.85459 14.7106C8.00973 14.674 8.14799 14.586 8.24696 14.4609C8.34592 14.3357 8.3998 14.1807 8.39983 14.021V7.38667C8.39983 7.16112 8.48925 6.94481 8.64841 6.78531C8.80758 6.62581 9.02346 6.53618 9.24858 6.53614H10.6647C10.8898 6.53618 11.1057 6.62581 11.2648 6.78531C11.424 6.94481 11.5134 7.16112 11.5134 7.38667V13.5444C11.5134 13.5444 11.8677 13.4008 12.2125 13.2549C12.3407 13.2006 12.4501 13.1096 12.527 12.9935C12.6039 12.8773 12.645 12.741 12.6451 12.6016V5.26067C12.6451 5.03517 12.7345 4.8189 12.8936 4.65943C13.0527 4.49997 13.2686 4.41035 13.4937 4.41031H14.9083C15.1332 4.41053 15.3489 4.50022 15.5079 4.65967C15.6669 4.81912 15.7562 5.03529 15.7562 5.26067V11.3057C16.9826 10.4152 18.2255 9.3441 19.2118 8.05626C19.3549 7.86932 19.4496 7.6498 19.4875 7.41728C19.5253 7.18476 19.5051 6.94647 19.4287 6.72368C18.9721 5.40762 18.2463 4.20155 17.2978 3.18265C16.3493 2.16374 15.199 1.35444 13.9204 0.806522C12.6417 0.258607 11.2631 -0.0158529 9.87251 0.000707146C8.48196 0.0172672 7.11017 0.324481 5.84492 0.902691C4.57968 1.4809 3.44884 2.31737 2.52478 3.35858C1.60071 4.39979 0.903768 5.6228 0.478543 6.94935C0.0533174 8.27591 -0.0908235 9.6768 0.0553428 11.0624C0.201509 12.4479 0.634764 13.7877 1.32738 14.9959C1.44805 15.2043 1.62559 15.3739 1.83913 15.4847C2.05266 15.5955 2.29334 15.643 2.53287 15.6215C2.80047 15.5979 3.13364 15.5646 3.52976 15.518C3.70216 15.4984 3.86132 15.4159 3.97694 15.2863C4.09255 15.1566 4.15654 14.9889 4.15672 14.8151V9.50622" fill="white"/>
<path d="M4.12598 18.084C5.61705 19.1708 7.37914 19.8231 9.2173 19.9689C11.0555 20.1146 12.898 19.748 14.5411 18.9096C16.1842 18.0712 17.5638 16.7938 18.5273 15.2186C19.4907 13.6435 20.0005 11.832 20.0002 9.98452C20.0002 9.7534 19.9894 9.52591 19.9741 9.29907C16.3222 14.7561 9.57934 17.3072 4.12598 18.084Z" fill="#F0B90B"/>
</svg>
