<svg width="36" height="36" viewBox="0 0 36 36" fill="none" xmlns="http://www.w3.org/2000/svg">
<g filter="url(#filter0_bii)">
<rect width="36" height="36" rx="18" fill="#B90D0D" fill-opacity="0.1"/>
</g>
<path d="M12.1561 17.5062C12.1561 17.3944 12.1782 17.2836 12.221 17.1804C12.2639 17.0771 12.3267 16.9833 12.4058 16.9044C12.4849 16.8256 12.5788 16.7631 12.6821 16.7207C12.7854 16.6782 12.896 16.6567 13.0076 16.6572L14.4194 16.6618C14.6445 16.6618 14.8604 16.7514 15.0196 16.9109C15.1787 17.0703 15.2682 17.2866 15.2682 17.5122V22.861C15.4272 22.8138 15.6307 22.7634 15.8546 22.7106C16.0097 22.674 16.148 22.586 16.247 22.4609C16.3459 22.3357 16.3998 22.1807 16.3998 22.021V15.3867C16.3998 15.1611 16.4892 14.9448 16.6484 14.7853C16.8076 14.6258 17.0235 14.5362 17.2486 14.5361H18.6647C18.8898 14.5362 19.1057 14.6258 19.2648 14.7853C19.424 14.9448 19.5134 15.1611 19.5134 15.3867V21.5444C19.5134 21.5444 19.8677 21.4008 20.2125 21.2549C20.3407 21.2006 20.4501 21.1096 20.527 20.9935C20.6039 20.8773 20.645 20.741 20.6451 20.6016V13.2607C20.6451 13.0352 20.7345 12.8189 20.8936 12.6594C21.0527 12.5 21.2686 12.4104 21.4937 12.4103H22.9083C23.1332 12.4105 23.3489 12.5002 23.5079 12.6597C23.6669 12.8191 23.7562 13.0353 23.7562 13.2607V19.3057C24.9826 18.4152 26.2255 17.3441 27.2118 16.0563C27.3549 15.8693 27.4496 15.6498 27.4875 15.4173C27.5253 15.1848 27.5051 14.9465 27.4287 14.7237C26.9721 13.4076 26.2463 12.2016 25.2978 11.1826C24.3493 10.1637 23.199 9.35444 21.9204 8.80652C20.6417 8.25861 19.2631 7.98415 17.8725 8.00071C16.482 8.01727 15.1102 8.32448 13.8449 8.90269C12.5797 9.4809 11.4488 10.3174 10.5248 11.3586C9.60071 12.3998 8.90377 13.6228 8.47854 14.9494C8.05332 16.2759 7.90918 17.6768 8.05534 19.0624C8.20151 20.4479 8.63476 21.7877 9.32738 22.9959C9.44805 23.2043 9.62559 23.3739 9.83913 23.4847C10.0527 23.5955 10.2933 23.643 10.5329 23.6215C10.8005 23.5979 11.1336 23.5646 11.5298 23.518C11.7022 23.4984 11.8613 23.4159 11.9769 23.2863C12.0926 23.1566 12.1565 22.9889 12.1567 22.8151V17.5062" fill="white"/>
<path d="M12.126 26.084C13.6171 27.1708 15.3791 27.8231 17.2173 27.9689C19.0555 28.1146 20.898 27.748 22.5411 26.9096C24.1842 26.0712 25.5638 24.7938 26.5273 23.2186C27.4907 21.6435 28.0005 19.832 28.0002 17.9845C28.0002 17.7534 27.9894 17.5259 27.9741 17.2991C24.3222 22.7561 17.5793 25.3072 12.126 26.084Z" fill="#F0B90B"/>
<defs>
<filter id="filter0_bii" x="-11.6" y="-11.6" width="59.2" height="59.2" filterUnits="userSpaceOnUse" color-interpolation-filters="sRGB">
<feFlood flood-opacity="0" result="BackgroundImageFix"/>
<feGaussianBlur in="BackgroundImage" stdDeviation="5.8"/>
<feComposite in2="SourceAlpha" operator="in" result="effect1_backgroundBlur"/>
<feBlend mode="normal" in="SourceGraphic" in2="effect1_backgroundBlur" result="shape"/>
<feColorMatrix in="SourceAlpha" type="matrix" values="0 0 0 0 0 0 0 0 0 0 0 0 0 0 0 0 0 0 127 0" result="hardAlpha"/>
<feOffset dx="-1.16" dy="1.16"/>
<feGaussianBlur stdDeviation="0.58"/>
<feComposite in2="hardAlpha" operator="arithmetic" k2="-1" k3="1"/>
<feColorMatrix type="matrix" values="0 0 0 0 1 0 0 0 0 1 0 0 0 0 1 0 0 0 0.4 0"/>
<feBlend mode="normal" in2="shape" result="effect2_innerShadow"/>
<feColorMatrix in="SourceAlpha" type="matrix" values="0 0 0 0 0 0 0 0 0 0 0 0 0 0 0 0 0 0 127 0" result="hardAlpha"/>
<feOffset dx="1.16" dy="-1.16"/>
<feGaussianBlur stdDeviation="0.58"/>
<feComposite in2="hardAlpha" operator="arithmetic" k2="-1" k3="1"/>
<feColorMatrix type="matrix" values="0 0 0 0 0.72549 0 0 0 0 0.0509804 0 0 0 0 0.0509804 0 0 0 0.4 0"/>
<feBlend mode="normal" in2="effect2_innerShadow" result="effect3_innerShadow"/>
</filter>
</defs>
</svg>
