<svg xmlns="http://www.w3.org/2000/svg" width="41.633" height="41.633" viewBox="0 0 41.633 41.633">
  <path id="telegram.0fb6c3d0" d="M21.017,0A20.817,20.817,0,1,0,41.833,20.817,20.813,20.813,0,0,0,21.017,0ZM31.24,14.261l-3.416,16.1c-.252,1.142-.932,1.419-1.88.881l-5.2-3.836-2.51,2.417a1.314,1.314,0,0,1-1.049.512l.369-5.3,9.645-8.713c.42-.369-.092-.579-.646-.21l-11.919,7.5-5.137-1.6c-1.116-.353-1.142-1.116.235-1.654L29.8,12.624C30.728,12.289,31.543,12.851,31.24,14.261Z" transform="translate(-0.2)" fill="#fff"/>
</svg>
