<svg xmlns="http://www.w3.org/2000/svg" width="41.633" height="41.633" viewBox="0 0 41.633 41.633">
  <path id="twitter.8e23b953" d="M21.217,41.633A20.817,20.817,0,1,0,.4,20.817,20.817,20.817,0,0,0,21.217,41.633Zm9.216-24.9c0-.2,0-.41-.014-.615a9.937,9.937,0,0,0,2.247-2.444,8.613,8.613,0,0,1-2.58.732A4.678,4.678,0,0,0,32.056,11.8a8.545,8.545,0,0,1-2.843,1.142,4.363,4.363,0,0,0-3.273-1.493,4.607,4.607,0,0,0-4.48,4.728,5.619,5.619,0,0,0,.111,1.083,12.526,12.526,0,0,1-9.237-4.947,4.892,4.892,0,0,0-.61,2.386,4.8,4.8,0,0,0,2,3.937,4.333,4.333,0,0,1-2.025-.6v.059a4.672,4.672,0,0,0,3.592,4.64,4.505,4.505,0,0,1-1.179.161,5.349,5.349,0,0,1-.846-.073A4.525,4.525,0,0,0,17.452,26.1a8.678,8.678,0,0,1-5.561,2.02,8.793,8.793,0,0,1-1.082-.059,12.182,12.182,0,0,0,6.879,2.122C25.926,30.184,30.433,22.983,30.433,16.733Z" transform="translate(-0.4)" fill="#fff" fill-rule="evenodd"/>
</svg>
